<?xml version="1.0" standalone="no"?>
<!DOCTYPE svg PUBLIC "-//W3C//DTD SVG 20010904//EN"
 "http://www.w3.org/TR/2001/REC-SVG-20010904/DTD/svg10.dtd">
<svg version="1.0" xmlns="http://www.w3.org/2000/svg"
 width="471.000000pt" height="767.000000pt" viewBox="0 0 471.000000 767.000000"
 preserveAspectRatio="xMidYMid meet">

<g transform="translate(0.000000,767.000000) scale(0.100000,-0.100000)"
fill="#000000" stroke="none">
<path d="M2350 6250 l0 -1415 -1175 -534 c-647 -293 -1174 -535 -1173 -537 11
-11 2345 -1386 2353 -1387 15 0 2350 1383 2348 1391 -3 11 -2334 3876 -2344
3887 -5 5 -9 -543 -9 -1405z"/>
<path d="M3523 2617 l-1172 -692 -1 -960 c0 -816 2 -957 14 -945 20 22 2340
3290 2334 3289 -2 0 -531 -311 -1175 -692z"/>
</g>
</svg>
